<svg width="36" height="36" viewBox="0 0 36 36" fill="none" xmlns="http://www.w3.org/2000/svg">
<path fill-rule="evenodd" clip-rule="evenodd" d="M8.49669 0.20915C7.57766 0.573015 7.03699 1.44438 7.03699 2.56157V3.06372L5.55163 3.09663C4.28094 3.12477 4.00496 3.14932 3.64188 3.26645C2.39071 3.67014 1.3951 4.72099 1.06571 5.98547C0.976585 6.32786 0.965094 7.83339 0.965942 19.0739C0.966987 33.1697 0.935713 32.175 1.40646 33.0747C1.72488 33.683 2.35467 34.3128 2.96305 34.6313C3.86608 35.1038 2.70424 35.0708 18.4628 35.0708C34.2214 35.0708 33.0596 35.1038 33.9626 34.6313C34.571 34.3128 35.2008 33.683 35.5192 33.0747C35.99 32.175 35.9587 33.1697 35.9597 19.0739C35.9606 7.83339 35.9491 6.32786 35.86 5.98547C35.5306 4.72099 34.535 3.67014 33.2838 3.26645C32.9207 3.14932 32.6447 3.12477 31.3741 3.09663L29.8887 3.06372V2.56157C29.8887 1.6998 29.644 1.11604 29.0719 0.612385C28.2522 -0.109076 26.9548 -0.109076 26.1351 0.612385C25.5612 1.1176 25.3183 1.6996 25.3183 2.56993V3.08037H18.4628H11.6073V2.56993C11.6073 1.4784 11.1164 0.644181 10.2442 0.253613C9.7993 0.0543461 8.94262 0.0325391 8.49669 0.20915ZM9.79329 1.75268C10.0758 2.00431 10.1056 2.20587 10.1056 3.86386C10.1056 5.5351 10.077 5.72216 9.78135 5.9858C9.56164 6.18174 9.05949 6.16646 8.83666 5.95707C8.55911 5.6963 8.52835 5.45623 8.55062 3.72159C8.57007 2.20515 8.57935 2.09938 8.70816 1.9261C8.78344 1.82477 8.91566 1.70404 9.00197 1.65775C9.20437 1.54917 9.62086 1.59919 9.79329 1.75268ZM28.0747 1.75268C28.3572 2.00431 28.387 2.20587 28.387 3.86386C28.387 5.5351 28.3584 5.72216 28.0627 5.9858C27.843 6.18174 27.3409 6.16646 27.118 5.95707C26.8405 5.6963 26.8097 5.45623 26.832 3.72159C26.8514 2.20515 26.8607 2.09938 26.9895 1.9261C27.0648 1.82477 27.197 1.70404 27.2833 1.65775C27.4857 1.54917 27.9022 1.59919 28.0747 1.75268ZM7.03699 5.15778C7.03699 6.02811 7.27987 6.61011 7.85377 7.11533C8.96645 8.09475 10.7627 7.69556 11.3817 6.33125C11.5349 5.99344 11.5729 5.80749 11.5952 5.28393L11.6225 4.64734H18.4704H25.3183V5.15778C25.3183 6.02811 25.5612 6.61011 26.1351 7.11533C27.2478 8.09475 29.0441 7.69556 29.663 6.33125C29.8166 5.99272 29.8542 5.80782 29.8768 5.27949L29.9042 4.63853L31.3492 4.65923C32.6709 4.67823 32.8204 4.69213 33.1021 4.82226C33.5614 5.03445 34.0201 5.49801 34.2383 5.97052C34.4246 6.37369 34.4266 6.39106 34.4473 7.79761L34.4682 9.21768H18.4674H2.46665V7.92376C2.46665 6.1963 2.58567 5.79691 3.28369 5.18253C3.82365 4.70721 4.05758 4.65466 5.64956 4.65074L7.03699 4.64734V5.15778ZM34.4435 21.2815L34.4264 31.8437L34.2135 32.276C33.9659 32.779 33.6119 33.1244 33.0958 33.3664L32.7288 33.5384H18.4615H4.1941L3.76182 33.3256C3.25862 33.0779 2.91336 32.7239 2.67133 32.2078L2.49929 31.8409L2.48219 21.2801L2.46508 10.7194H18.4628H34.4606L34.4435 21.2815Z" fill="#FFF8F0"/>
</svg>
