<svg width="33" height="36" viewBox="0 0 33 36" fill="none" xmlns="http://www.w3.org/2000/svg">
<path fill-rule="evenodd" clip-rule="evenodd" d="M15.8992 1.45726C12.1152 4.33366 1.22365 12.8408 1.08246 13.0303L0.899961 13.2752L0.877312 24.1168C0.852233 36.0668 0.822034 35.3877 1.39374 35.7362C1.67351 35.9068 1.81817 35.9114 6.95717 35.9117C12.5429 35.912 12.5057 35.9145 12.8385 35.514C12.9402 35.3917 12.971 34.6496 13.0109 31.3646C13.0568 27.5887 13.0697 27.3369 13.2406 26.8777C13.6784 25.7013 14.5485 24.8441 15.6993 24.4556C16.1668 24.2977 16.4041 24.2719 17.1277 24.3005C17.8964 24.3308 18.0646 24.368 18.6005 24.6265C19.3163 24.9717 20.0071 25.6254 20.3305 26.2636C20.7955 27.1812 20.8158 27.3978 20.8158 31.426C20.8158 35.5556 20.8092 35.5052 21.3892 35.7804C21.8058 35.9781 31.975 35.9781 32.3916 35.7804C33.0086 35.4877 32.965 36.3659 32.965 24.2526C32.965 16.0605 32.9395 13.3017 32.8625 13.1326C32.7998 12.995 29.8062 10.621 25.1608 7.02486C20.9812 3.78937 17.4763 1.09661 17.3721 1.04098C16.9533 0.817613 16.6149 0.913244 15.8992 1.45726ZM23.9833 8.56268L31.0124 14.0121L31.0345 23.964L31.0565 33.9161H26.8908H22.725V30.6323C22.725 26.9224 22.6826 26.5892 22.059 25.3857C21.6451 24.5871 20.5655 23.4819 19.7745 23.047C17.5005 21.7968 14.7227 22.1655 12.8937 23.9604C12.152 24.6882 11.728 25.3525 11.3853 26.3237L11.1408 27.0171L11.1133 30.4666L11.0857 33.9161H6.96914H2.8525L2.85423 23.9581L2.85588 14.0002L9.86167 8.56294C13.7148 5.57252 16.8869 3.12291 16.9108 3.11952C16.9346 3.11605 20.1173 5.56549 23.9833 8.56268Z" fill="#FFF8F0"/>
</svg>
