<svg width="45" height="45" viewBox="0 0 45 45" fill="none" xmlns="http://www.w3.org/2000/svg">
<g clip-path="url(#clip0_82_3333)">
<path d="M33.3068 11.7738C31.1667 9.63345 28.44 8.17584 25.4714 7.58525C22.5029 6.99465 19.4259 7.2976 16.6295 8.45579C13.8331 9.61398 11.443 11.5754 9.7614 14.092C8.07977 16.6086 7.18217 19.5673 7.18211 22.594C7.18205 25.6207 8.07952 28.5795 9.76104 31.0962C11.4426 33.6128 13.8326 35.5743 16.6289 36.7326C19.4252 37.8909 22.5022 38.194 25.4708 37.6035C28.4394 37.0131 31.1662 35.5556 33.3064 33.4154C34.7275 31.9944 35.8547 30.3075 36.6238 28.4508C37.3929 26.5942 37.7888 24.6043 37.7889 22.5947C37.7889 20.585 37.3931 18.5951 36.6241 16.7384C35.8551 14.8818 34.7279 13.1948 33.3068 11.7738ZM23.8562 30.3514C23.8563 30.4289 23.841 30.5056 23.8114 30.5772C23.7818 30.6488 23.7383 30.7139 23.6835 30.7686C23.6287 30.8234 23.5637 30.8669 23.4921 30.8965C23.4205 30.9262 23.3437 30.9414 23.2662 30.9414H21.71C21.6325 30.9414 21.5558 30.9262 21.4843 30.8966C21.4127 30.867 21.3477 30.8236 21.293 30.7688C21.2382 30.7141 21.1948 30.6491 21.1652 30.5775C21.1356 30.506 21.1204 30.4293 21.1204 30.3518L21.1158 23.9648L14.7288 23.9648C14.6513 23.9648 14.5747 23.9496 14.5031 23.92C14.4315 23.8904 14.3665 23.847 14.3118 23.7922C14.257 23.7375 14.2136 23.6724 14.184 23.6009C14.1544 23.5293 14.1392 23.4526 14.1392 23.3752L14.1392 21.819C14.1392 21.7415 14.1544 21.6647 14.1841 21.5931C14.2137 21.5215 14.2572 21.4565 14.312 21.4017C14.3668 21.3469 14.4318 21.3034 14.5034 21.2738C14.575 21.2441 14.6517 21.2289 14.7292 21.2289L21.1158 21.2294L21.1158 14.8378C21.1158 14.7603 21.131 14.6835 21.1607 14.6119C21.1903 14.5403 21.2338 14.4753 21.2886 14.4205C21.3434 14.3657 21.4084 14.3222 21.48 14.2926C21.5516 14.2629 21.6284 14.2477 21.7059 14.2478L23.2644 14.25C23.3418 14.25 23.4185 14.2652 23.4901 14.2948C23.5616 14.3244 23.6267 14.3678 23.6814 14.4226C23.7362 14.4773 23.7796 14.5423 23.8092 14.6139C23.8388 14.6855 23.854 14.7622 23.8539 14.8396L23.8562 21.2244L30.2433 21.2244C30.3207 21.2243 30.3974 21.2395 30.469 21.2691C30.5405 21.2987 30.6056 21.3421 30.6603 21.3969C30.7151 21.4517 30.7585 21.5167 30.7881 21.5882C30.8177 21.6598 30.8329 21.7365 30.8328 21.8139V23.3702C30.8329 23.4477 30.8177 23.5244 30.788 23.596C30.7584 23.6676 30.7149 23.7327 30.6601 23.7875C30.6053 23.8423 30.5403 23.8857 30.4687 23.9153C30.3971 23.945 30.3203 23.9602 30.2428 23.9602H23.8558L23.8562 30.3514Z" fill="#D9720B"/>
</g>
<defs>
<clipPath id="clip0_82_3333">
<rect width="31.0713" height="31.0713" fill="white" transform="translate(22.6094 0.5) rotate(45)"/>
</clipPath>
</defs>
</svg>
