<svg width="40" height="30" viewBox="0 0 40 30" fill="none" xmlns="http://www.w3.org/2000/svg">
<path fill-rule="evenodd" clip-rule="evenodd" d="M4.80644 0.0816423C3.4524 0.346661 1.8658 1.53732 1.2532 2.74816C0.623934 3.99189 0.642574 3.61888 0.641149 14.989C0.640052 23.924 0.663847 25.5571 0.803428 26.0927C1.20671 27.6412 2.12742 28.768 3.57587 29.4857L4.51577 29.9515L19.9843 29.984C37.2785 30.0203 36.1912 30.0663 37.4572 29.2437C38.6412 28.4743 39.4954 27.2615 39.7777 25.9494C39.8739 25.502 39.8986 22.5865 39.8732 14.6557L39.8389 3.96503L39.5812 3.32644C39.0263 1.95081 37.7637 0.729332 36.385 0.234273C35.7963 0.0228727 35.4193 0.0172797 20.5409 0.00138083C12.1222 -0.00761028 5.07903 0.0282439 4.80644 0.0816423ZM34.8389 2.47569C34.9521 2.54729 34.275 3.10561 32.2622 4.60011C30.7606 5.71512 27.6323 8.03855 25.3105 9.7632C22.9258 11.5346 20.9095 12.9549 20.6762 13.0276C20.3827 13.1192 20.1577 13.1239 19.8979 13.0442C19.6969 12.9825 16.3856 10.5965 12.5393 7.74217C6.98898 3.62304 5.58867 2.53556 5.75193 2.47141C6.04974 2.35442 34.6541 2.3587 34.8389 2.47569ZM10.9366 9.61101C14.9414 12.5817 18.4446 15.1171 18.7216 15.245C19.1235 15.4309 19.4362 15.4779 20.2708 15.4779C21.2155 15.478 21.3797 15.4461 21.9703 15.1481C22.33 14.9666 25.8784 12.4009 29.8559 9.44642C33.8332 6.49197 37.1144 4.08225 37.1474 4.09146C37.44 4.17336 37.4693 5.14637 37.4753 14.9921C37.4822 26.4343 37.5199 25.8802 36.676 26.7485C35.7878 27.6623 37.0475 27.6001 20.0979 27.5679C5.90083 27.5408 5.05896 27.5285 4.68495 27.3423C4.16544 27.0836 3.6399 26.5611 3.34484 26.01L3.1069 25.5656V15.0394C3.1069 6.52311 3.13454 4.46481 3.25164 4.25944C3.34988 4.08707 3.43782 4.03839 3.52576 4.10768C3.59692 4.16382 6.93185 6.64032 10.9366 9.61101Z" fill="#FFF8F0"/>
</svg>
