<svg width="34" height="36" viewBox="0 0 34 36" fill="none" xmlns="http://www.w3.org/2000/svg">
<path fill-rule="evenodd" clip-rule="evenodd" d="M16.5194 0.528468C13.0544 0.892611 10.4718 2.10933 8.29677 4.40218C6.82658 5.95228 5.76768 7.84565 5.20821 9.92527C4.89982 11.0716 4.89947 11.0781 4.85696 15.9481C4.82923 19.1325 4.77261 20.8739 4.69377 20.969C4.6273 21.0491 4.40074 21.1147 4.19022 21.1147C3.56955 21.1147 2.62365 21.536 2.08881 22.0506C0.31596 23.7566 0.736656 26.577 2.93937 27.7521L3.51236 28.0578L17.1433 28.0884C32.5639 28.1229 31.398 28.1912 32.4922 27.1898C33.3289 26.4239 33.648 25.693 33.641 24.5576C33.6369 23.8934 33.5733 23.5669 33.3622 23.1278C32.8496 22.0617 31.8384 21.295 30.7587 21.154C29.7268 21.0192 29.8129 21.4554 29.8129 16.363C29.8129 11.3753 29.749 10.6875 29.1173 8.87851C27.8776 5.32832 24.939 2.39383 21.4238 1.19559C20.0045 0.711745 17.7253 0.401655 16.5194 0.528468ZM19.8668 2.74408C22.1508 3.32903 24.093 4.57054 25.5283 6.36279C26.5722 7.66638 27.05 8.63935 27.7011 10.786C27.749 10.9438 27.8182 13.371 27.8551 16.1799C27.9205 21.1726 27.9277 21.2975 28.1767 21.7636C28.5823 22.5235 29.1315 22.8666 30.1605 23.0032C31.1319 23.1322 31.7611 23.7688 31.7611 24.6226C31.7611 25.0879 31.4162 25.7092 31.0254 25.9478C30.6854 26.1554 30.1821 26.1634 17.3392 26.1638C2.45312 26.1642 3.61298 26.2302 3.12204 25.3556C2.83222 24.8391 2.81881 24.4389 3.07345 23.9015C3.30895 23.4044 3.79886 23.0932 4.48268 23.0061C5.62042 22.8612 6.38858 22.2525 6.65193 21.2868C6.73249 20.9913 6.77741 19.2208 6.77776 16.3185C6.77856 11.3887 6.83116 10.8431 7.46513 9.2041C7.95275 7.94296 8.66143 6.83516 9.63025 5.81927C11.3989 3.96482 13.378 2.92885 15.9251 2.5242C16.8568 2.37627 18.8689 2.48851 19.8668 2.74408ZM11.9539 30.8408C12.2961 33.7185 15.1522 35.8617 18.0951 35.449C20.5701 35.102 22.3736 33.2075 22.755 30.5539V28.1019L21.9031 28.1001L20.828 28.0975V30.5539C20.6477 31.7193 19.8027 32.8215 18.7108 33.3155C17.9778 33.6471 16.6622 33.6477 15.9464 33.3167C14.8263 32.7989 14.0263 31.755 13.8289 30.5539V28.0809L12.7843 28.0786L11.9539 28.0767V30.8408Z" fill="#FFF8F0"/>
</svg>
