<svg width="36" height="36" viewBox="0 0 36 36" fill="none" xmlns="http://www.w3.org/2000/svg">
<path fill-rule="evenodd" clip-rule="evenodd" d="M16.4988 0.582025C14.0983 0.858214 11.4522 1.77037 9.41917 3.02235C4.69112 5.93394 1.62617 10.7882 1.0517 16.2749C0.927932 17.4567 0.995316 19.7652 1.18467 20.8294C1.85237 24.5829 3.52426 27.7996 6.17229 30.4253C8.79003 33.021 11.963 34.6424 15.7047 35.2963C17.1443 35.548 19.5631 35.5695 21.0113 35.3438C24.847 34.7457 28.1878 33.0643 30.8703 30.3817C33.5607 27.6915 35.2386 24.3566 35.831 20.5227C36.051 19.0987 36.0335 16.6547 35.7932 15.2393C34.8243 9.53259 31.3605 4.84735 26.2181 2.28769C24.403 1.38424 22.4085 0.797398 20.4044 0.577248C19.449 0.472249 17.4309 0.474722 16.4988 0.582025ZM19.9229 2.45215C24.2597 2.89082 28.1383 5.01854 30.7993 8.41879C32.2407 10.2607 33.3465 12.6849 33.8192 15.0396C34.0539 16.2086 34.1368 18.5737 33.988 19.854C33.78 21.6436 33.1728 23.5851 32.3116 25.2149C31.727 26.3214 30.6165 27.9516 30.4474 27.9516C30.4171 27.9516 29.9647 27.5069 29.4421 26.9633C26.9989 24.4218 24.354 22.9031 21.1901 22.2251C19.9899 21.9678 17.2234 21.9425 16.0296 22.1778C12.6904 22.8358 9.71942 24.558 7.23414 27.2762C6.91581 27.6242 6.61403 27.9197 6.56337 27.933C6.44012 27.965 5.71177 26.9956 5.07939 25.9577C2.74943 22.1334 2.23706 17.2474 3.71499 12.9462C4.08159 11.8793 5.07137 9.94832 5.7296 9.01586C6.47509 7.95973 8.44833 5.98648 9.50447 5.24099C10.4369 4.58276 12.368 3.59298 13.4348 3.22638C15.4924 2.51936 17.8301 2.24044 19.9229 2.45215ZM17.054 6.17217C15.7938 6.44213 14.7047 7.05013 13.7232 8.03155C12.2923 9.46256 11.6478 11.1298 11.7455 13.1483C11.8796 15.9204 13.6548 18.2737 16.2995 19.1853C18.8375 20.0601 21.5173 19.396 23.3855 17.4293C25.7904 14.8976 25.8957 11.1374 23.6378 8.41282C22.7599 7.35344 21.2375 6.43958 19.8929 6.16484C19.0822 5.99919 17.8464 6.00235 17.054 6.17217ZM20.0166 8.18806C21.2943 8.65259 22.2803 9.51698 22.8368 10.6605C23.1978 11.4024 23.3225 11.9621 23.3225 12.8405C23.3225 15.0084 21.8113 16.9487 19.6929 17.5005C19.0533 17.667 17.9579 17.6675 17.3057 17.5013C15.9797 17.1636 14.7564 16.1827 14.1646 14.9827C13.4609 13.5554 13.4427 12.1258 14.1107 10.7336C14.7484 9.40464 16.0575 8.35141 17.4741 8.02745C18.2123 7.85865 19.2993 7.92731 20.0166 8.18806ZM20.6356 24.0701C23.4022 24.5615 26.3045 26.2545 28.3665 28.5802C28.7355 28.9962 29.0373 29.3675 29.0373 29.4052C29.0373 29.5383 28.1302 30.2747 27.2034 30.8938C21.7839 34.5142 14.8068 34.4441 9.4956 30.7157C8.72247 30.173 7.96905 29.5099 7.96939 29.3724C7.96973 29.2156 9.33584 27.7848 10.1154 27.1248C12.2684 25.3017 14.7755 24.1948 17.3944 23.9112C18.0265 23.8427 19.8621 23.9326 20.6356 24.0701Z" fill="#FFF8F0"/>
</svg>
