<svg width="18" height="18" viewBox="0 0 18 18" fill="none" xmlns="http://www.w3.org/2000/svg">
<g clip-path="url(#clip0_76_4026)">
<path d="M4.71842 4.94735C3.89181 5.77389 3.32887 6.82698 3.10078 7.97346C2.87268 9.11994 2.98969 10.3083 3.43699 11.3883C3.88429 12.4683 4.6418 13.3914 5.61373 14.0408C6.58566 14.6903 7.72835 15.0369 8.89729 15.037C10.0662 15.037 11.2089 14.6904 12.1809 14.041C13.1529 13.3915 13.9104 12.4685 14.3578 11.3885C14.8051 10.3086 14.9222 9.12019 14.6941 7.9737C14.4661 6.82722 13.9032 5.7741 13.0766 4.94753C12.5278 4.3987 11.8763 3.96333 11.1593 3.6663C10.4422 3.36926 9.67368 3.21637 8.89754 3.21635C8.12141 3.21634 7.35287 3.3692 6.63582 3.6662C5.91876 3.96321 5.26723 4.39854 4.71842 4.94735V4.94735ZM11.8933 8.59726C11.9232 8.59725 11.9528 8.60313 11.9805 8.61457C12.0081 8.62602 12.0332 8.6428 12.0544 8.66397C12.0756 8.68513 12.0924 8.71026 12.1038 8.73791C12.1152 8.76556 12.1211 8.7952 12.1211 8.82513L12.1211 9.42617C12.1211 9.45607 12.1153 9.48569 12.1038 9.51333C12.0924 9.54096 12.0756 9.56607 12.0545 9.58722C12.0333 9.60837 12.0082 9.62514 11.9806 9.63657C11.953 9.64801 11.9233 9.65388 11.8934 9.65385L9.42669 9.65562L9.42669 12.1224C9.42671 12.1523 9.42084 12.1819 9.40941 12.2095C9.39797 12.2372 9.3812 12.2623 9.36005 12.2834C9.33891 12.3046 9.3138 12.3213 9.28616 12.3328C9.25853 12.3442 9.22891 12.3501 9.199 12.3501L8.59796 12.3501C8.56803 12.3501 8.53839 12.3442 8.51074 12.3327C8.48309 12.3213 8.45796 12.3045 8.4368 12.2833C8.41564 12.2622 8.39885 12.2371 8.38741 12.2094C8.37596 12.1818 8.37008 12.1521 8.37009 12.1222L8.37027 9.65562L5.90176 9.65562C5.87183 9.65564 5.8422 9.64975 5.81454 9.63831C5.78689 9.62686 5.76177 9.61008 5.7406 9.58892C5.71944 9.56775 5.70266 9.54263 5.69121 9.51498C5.67976 9.48732 5.67388 9.45769 5.6739 9.42776L5.67478 8.82583C5.67476 8.79593 5.68063 8.76631 5.69206 8.73867C5.7035 8.71104 5.72027 8.68593 5.74141 8.66478C5.76256 8.64363 5.78767 8.62686 5.81531 8.61543C5.84294 8.60399 5.87256 8.59812 5.90247 8.59814L8.36833 8.59726L8.36833 6.13052C8.3683 6.10061 8.37417 6.07099 8.38561 6.04336C8.39704 6.01572 8.41381 5.99061 8.43496 5.96946C8.45611 5.94832 8.48122 5.93155 8.50885 5.92011C8.53649 5.90868 8.56611 5.90281 8.59601 5.90283L9.19706 5.90283C9.22698 5.90282 9.25662 5.9087 9.28427 5.92015C9.31193 5.93159 9.33705 5.94838 9.35821 5.96954C9.37938 5.9907 9.39616 6.01583 9.40761 6.04348C9.41905 6.07113 9.42494 6.10077 9.42492 6.1307L9.42492 8.59744L11.8933 8.59726Z" fill="#494949" fill-opacity="0.7"/>
</g>
<defs>
<clipPath id="clip0_76_4026">
<rect width="12" height="12" fill="white" transform="translate(0.15332 9) rotate(-45)"/>
</clipPath>
</defs>
</svg>
